<mxfile host="app.diagrams.net" modified="2023-10-20T01:01:17.047Z" agent="Mozilla/5.0 (Windows NT 10.0; Win64; x64; rv:109.0) Gecko/20100101 Firefox/118.0" etag="5j4e-d0f-Q1mcG-b7i2F" version="22.0.5" type="github">
  <diagram name="Page-1" id="PMyAB1Z8tTZ8C5M9GIQ3">
    <mxGraphModel dx="880" dy="425" grid="1" gridSize="10" guides="1" tooltips="1" connect="1" arrows="1" fold="1" page="1" pageScale="1" pageWidth="850" pageHeight="1100" math="0" shadow="0">
      <root>
        <mxCell id="0" />
        <mxCell id="1" parent="0" />
        <mxCell id="H7PLNRZKteVmDdgZQ0TA-1" value="Docease" style="ellipse;whiteSpace=wrap;html=1;aspect=fixed;" vertex="1" parent="1">
          <mxGeometry x="370" y="20" width="80" height="80" as="geometry" />
        </mxCell>
        <mxCell id="H7PLNRZKteVmDdgZQ0TA-4" value="" style="endArrow=none;html=1;rounded=0;" edge="1" parent="1">
          <mxGeometry width="50" height="50" relative="1" as="geometry">
            <mxPoint x="400" y="140" as="sourcePoint" />
            <mxPoint x="400" y="100" as="targetPoint" />
          </mxGeometry>
        </mxCell>
        <mxCell id="H7PLNRZKteVmDdgZQ0TA-5" value="" style="endArrow=none;html=1;rounded=0;" edge="1" parent="1">
          <mxGeometry width="50" height="50" relative="1" as="geometry">
            <mxPoint x="40" y="140" as="sourcePoint" />
            <mxPoint x="1040" y="140" as="targetPoint" />
            <Array as="points">
              <mxPoint x="400" y="140" />
            </Array>
          </mxGeometry>
        </mxCell>
        <mxCell id="H7PLNRZKteVmDdgZQ0TA-6" value="" style="endArrow=none;html=1;rounded=0;" edge="1" parent="1">
          <mxGeometry width="50" height="50" relative="1" as="geometry">
            <mxPoint x="40" y="200" as="sourcePoint" />
            <mxPoint x="40" y="140" as="targetPoint" />
          </mxGeometry>
        </mxCell>
        <mxCell id="H7PLNRZKteVmDdgZQ0TA-7" value="Initiation " style="rounded=0;whiteSpace=wrap;html=1;" vertex="1" parent="1">
          <mxGeometry x="10" y="200" width="120" height="40" as="geometry" />
        </mxCell>
        <mxCell id="H7PLNRZKteVmDdgZQ0TA-8" value="" style="endArrow=none;html=1;rounded=0;" edge="1" parent="1">
          <mxGeometry width="50" height="50" relative="1" as="geometry">
            <mxPoint x="60" y="280" as="sourcePoint" />
            <mxPoint x="70" y="240" as="targetPoint" />
            <Array as="points">
              <mxPoint x="70" y="280" />
            </Array>
          </mxGeometry>
        </mxCell>
        <mxCell id="H7PLNRZKteVmDdgZQ0TA-9" value="Project Initiation Process (PIR) and completion " style="rounded=0;whiteSpace=wrap;html=1;" vertex="1" parent="1">
          <mxGeometry x="10" y="280" width="120" height="60" as="geometry" />
        </mxCell>
        <mxCell id="H7PLNRZKteVmDdgZQ0TA-10" value="" style="endArrow=none;html=1;rounded=0;" edge="1" parent="1">
          <mxGeometry width="50" height="50" relative="1" as="geometry">
            <mxPoint x="70" y="400" as="sourcePoint" />
            <mxPoint x="70" y="340" as="targetPoint" />
          </mxGeometry>
        </mxCell>
        <mxCell id="H7PLNRZKteVmDdgZQ0TA-12" value="Budget " style="rounded=0;whiteSpace=wrap;html=1;" vertex="1" parent="1">
          <mxGeometry x="10" y="400" width="120" height="40" as="geometry" />
        </mxCell>
        <mxCell id="H7PLNRZKteVmDdgZQ0TA-13" value="" style="endArrow=none;html=1;rounded=0;entryX=0.5;entryY=1;entryDx=0;entryDy=0;" edge="1" parent="1" target="H7PLNRZKteVmDdgZQ0TA-12">
          <mxGeometry width="50" height="50" relative="1" as="geometry">
            <mxPoint x="70" y="500" as="sourcePoint" />
            <mxPoint x="80" y="450" as="targetPoint" />
          </mxGeometry>
        </mxCell>
        <mxCell id="H7PLNRZKteVmDdgZQ0TA-15" value="Project Charter " style="rounded=0;whiteSpace=wrap;html=1;" vertex="1" parent="1">
          <mxGeometry x="10" y="500" width="120" height="60" as="geometry" />
        </mxCell>
        <mxCell id="H7PLNRZKteVmDdgZQ0TA-16" value="" style="endArrow=none;html=1;rounded=0;" edge="1" parent="1">
          <mxGeometry width="50" height="50" relative="1" as="geometry">
            <mxPoint x="70" y="720" as="sourcePoint" />
            <mxPoint x="70" y="560" as="targetPoint" />
          </mxGeometry>
        </mxCell>
        <mxCell id="H7PLNRZKteVmDdgZQ0TA-17" value="&lt;div&gt;&amp;nbsp;Draft charter&amp;nbsp;&lt;/div&gt;&lt;div&gt;body&amp;nbsp; &lt;/div&gt;" style="text;html=1;align=center;verticalAlign=middle;resizable=0;points=[];autosize=1;strokeColor=none;fillColor=none;" vertex="1" parent="1">
          <mxGeometry x="60" y="565" width="100" height="40" as="geometry" />
        </mxCell>
        <mxCell id="H7PLNRZKteVmDdgZQ0TA-18" value="&lt;div&gt;Charter&amp;nbsp;&lt;/div&gt;&lt;div&gt;Submission &lt;/div&gt;" style="text;html=1;align=center;verticalAlign=middle;resizable=0;points=[];autosize=1;strokeColor=none;fillColor=none;" vertex="1" parent="1">
          <mxGeometry x="70" y="605" width="90" height="40" as="geometry" />
        </mxCell>
        <mxCell id="H7PLNRZKteVmDdgZQ0TA-19" value="&lt;div&gt;Charter&lt;/div&gt;&lt;div&gt;&amp;nbsp;Approval &lt;/div&gt;" style="text;html=1;align=center;verticalAlign=middle;resizable=0;points=[];autosize=1;strokeColor=none;fillColor=none;" vertex="1" parent="1">
          <mxGeometry x="75" y="645" width="70" height="40" as="geometry" />
        </mxCell>
        <mxCell id="H7PLNRZKteVmDdgZQ0TA-26" value="Kick-off meeting " style="rounded=0;whiteSpace=wrap;html=1;" vertex="1" parent="1">
          <mxGeometry x="20" y="720" width="120" height="60" as="geometry" />
        </mxCell>
        <mxCell id="H7PLNRZKteVmDdgZQ0TA-27" value="" style="endArrow=none;html=1;rounded=0;exitX=0.5;exitY=0;exitDx=0;exitDy=0;" edge="1" parent="1" source="H7PLNRZKteVmDdgZQ0TA-29">
          <mxGeometry width="50" height="50" relative="1" as="geometry">
            <mxPoint x="70" y="920" as="sourcePoint" />
            <mxPoint x="70" y="780" as="targetPoint" />
            <Array as="points">
              <mxPoint x="70" y="780" />
            </Array>
          </mxGeometry>
        </mxCell>
        <mxCell id="H7PLNRZKteVmDdgZQ0TA-29" value="Initiation phase complete " style="rounded=0;whiteSpace=wrap;html=1;" vertex="1" parent="1">
          <mxGeometry x="10" y="970" width="120" height="60" as="geometry" />
        </mxCell>
        <mxCell id="H7PLNRZKteVmDdgZQ0TA-30" value="&lt;div&gt;Distribute charter &lt;br&gt;&lt;/div&gt;&lt;div&gt;to team members &lt;br&gt;&lt;/div&gt;" style="text;html=1;align=center;verticalAlign=middle;resizable=0;points=[];autosize=1;strokeColor=none;fillColor=none;" vertex="1" parent="1">
          <mxGeometry x="70" y="793" width="120" height="40" as="geometry" />
        </mxCell>
        <mxCell id="H7PLNRZKteVmDdgZQ0TA-32" value="&lt;div&gt;Conduct kick-off&amp;nbsp;&lt;/div&gt;&lt;div&gt;meeting &lt;/div&gt;" style="text;html=1;align=center;verticalAlign=middle;resizable=0;points=[];autosize=1;strokeColor=none;fillColor=none;" vertex="1" parent="1">
          <mxGeometry x="70" y="850" width="110" height="40" as="geometry" />
        </mxCell>
        <mxCell id="H7PLNRZKteVmDdgZQ0TA-33" value="&lt;div&gt;Charter review&amp;nbsp;&lt;/div&gt;&lt;div&gt;Approval &lt;/div&gt;" style="text;html=1;align=center;verticalAlign=middle;resizable=0;points=[];autosize=1;strokeColor=none;fillColor=none;" vertex="1" parent="1">
          <mxGeometry x="70" y="903" width="110" height="40" as="geometry" />
        </mxCell>
        <mxCell id="H7PLNRZKteVmDdgZQ0TA-34" value="" style="endArrow=none;html=1;rounded=0;" edge="1" parent="1">
          <mxGeometry width="50" height="50" relative="1" as="geometry">
            <mxPoint x="220" y="200" as="sourcePoint" />
            <mxPoint x="220" y="140" as="targetPoint" />
          </mxGeometry>
        </mxCell>
        <mxCell id="H7PLNRZKteVmDdgZQ0TA-35" value="Planning " style="rounded=0;whiteSpace=wrap;html=1;" vertex="1" parent="1">
          <mxGeometry x="160" y="200" width="120" height="30" as="geometry" />
        </mxCell>
        <mxCell id="H7PLNRZKteVmDdgZQ0TA-36" value="" style="endArrow=none;html=1;rounded=0;" edge="1" parent="1">
          <mxGeometry width="50" height="50" relative="1" as="geometry">
            <mxPoint x="220" y="280" as="sourcePoint" />
            <mxPoint x="220" y="230" as="targetPoint" />
          </mxGeometry>
        </mxCell>
        <mxCell id="H7PLNRZKteVmDdgZQ0TA-37" value="Project plan " style="rounded=0;whiteSpace=wrap;html=1;" vertex="1" parent="1">
          <mxGeometry x="160" y="280" width="120" height="30" as="geometry" />
        </mxCell>
        <mxCell id="H7PLNRZKteVmDdgZQ0TA-39" value="" style="endArrow=none;html=1;rounded=0;" edge="1" parent="1">
          <mxGeometry width="50" height="50" relative="1" as="geometry">
            <mxPoint x="220" y="1040" as="sourcePoint" />
            <mxPoint x="220" y="310" as="targetPoint" />
          </mxGeometry>
        </mxCell>
        <mxCell id="H7PLNRZKteVmDdgZQ0TA-40" value="" style="endArrow=none;html=1;rounded=0;" edge="1" parent="1">
          <mxGeometry width="50" height="50" relative="1" as="geometry">
            <mxPoint x="220" y="360" as="sourcePoint" />
            <mxPoint x="250" y="360" as="targetPoint" />
          </mxGeometry>
        </mxCell>
        <mxCell id="H7PLNRZKteVmDdgZQ0TA-41" value="Create Plan " style="rounded=0;whiteSpace=wrap;html=1;" vertex="1" parent="1">
          <mxGeometry x="250" y="330" width="90" height="40" as="geometry" />
        </mxCell>
        <mxCell id="H7PLNRZKteVmDdgZQ0TA-42" value="" style="endArrow=none;html=1;rounded=0;" edge="1" parent="1">
          <mxGeometry width="50" height="50" relative="1" as="geometry">
            <mxPoint x="300" y="1000" as="sourcePoint" />
            <mxPoint x="300" y="370" as="targetPoint" />
          </mxGeometry>
        </mxCell>
        <mxCell id="H7PLNRZKteVmDdgZQ0TA-43" value="&lt;div&gt;Identify&amp;nbsp;&lt;/div&gt;&lt;div&gt;stakeholders&lt;/div&gt;&lt;div&gt;&amp;nbsp;needs&lt;/div&gt;" style="text;html=1;align=center;verticalAlign=middle;resizable=0;points=[];autosize=1;strokeColor=none;fillColor=none;" vertex="1" parent="1">
          <mxGeometry x="290" y="380" width="100" height="60" as="geometry" />
        </mxCell>
        <mxCell id="H7PLNRZKteVmDdgZQ0TA-44" value="&lt;div&gt;Smart project&amp;nbsp;&lt;/div&gt;&lt;div&gt;objectives and goals &lt;/div&gt;" style="text;html=1;align=center;verticalAlign=middle;resizable=0;points=[];autosize=1;strokeColor=none;fillColor=none;" vertex="1" parent="1">
          <mxGeometry x="290" y="440" width="140" height="40" as="geometry" />
        </mxCell>
        <mxCell id="H7PLNRZKteVmDdgZQ0TA-45" value="Project Scope " style="text;html=1;align=center;verticalAlign=middle;resizable=0;points=[];autosize=1;strokeColor=none;fillColor=none;" vertex="1" parent="1">
          <mxGeometry x="300" y="488" width="100" height="30" as="geometry" />
        </mxCell>
        <mxCell id="H7PLNRZKteVmDdgZQ0TA-48" value="&lt;div&gt;Clear Deliverables&lt;/div&gt;&lt;div&gt;and deadlines &lt;br&gt; &lt;/div&gt;" style="text;html=1;align=center;verticalAlign=middle;resizable=0;points=[];autosize=1;strokeColor=none;fillColor=none;" vertex="1" parent="1">
          <mxGeometry x="290" y="525" width="130" height="40" as="geometry" />
        </mxCell>
        <mxCell id="H7PLNRZKteVmDdgZQ0TA-49" value="&lt;div&gt;Clearly&amp;nbsp;&lt;/div&gt;&lt;div&gt;defined roles&lt;/div&gt;" style="text;html=1;align=center;verticalAlign=middle;resizable=0;points=[];autosize=1;strokeColor=none;fillColor=none;" vertex="1" parent="1">
          <mxGeometry x="300" y="570" width="100" height="40" as="geometry" />
        </mxCell>
        <mxCell id="H7PLNRZKteVmDdgZQ0TA-50" value="&lt;div&gt;Estimate&amp;nbsp;&lt;/div&gt;&lt;div&gt;project costs&amp;nbsp; &lt;/div&gt;" style="text;html=1;align=center;verticalAlign=middle;resizable=0;points=[];autosize=1;strokeColor=none;fillColor=none;" vertex="1" parent="1">
          <mxGeometry x="305" y="620" width="100" height="40" as="geometry" />
        </mxCell>
        <mxCell id="H7PLNRZKteVmDdgZQ0TA-51" value="&lt;div&gt;Communication&amp;nbsp;&lt;/div&gt;&lt;div&gt;plan &lt;/div&gt;" style="text;html=1;align=center;verticalAlign=middle;resizable=0;points=[];autosize=1;strokeColor=none;fillColor=none;" vertex="1" parent="1">
          <mxGeometry x="295" y="663" width="110" height="40" as="geometry" />
        </mxCell>
        <mxCell id="H7PLNRZKteVmDdgZQ0TA-52" value="&lt;div&gt;Schedules and&lt;/div&gt;&lt;div&gt;&amp;nbsp;timelines &lt;/div&gt;" style="text;html=1;align=center;verticalAlign=middle;resizable=0;points=[];autosize=1;strokeColor=none;fillColor=none;" vertex="1" parent="1">
          <mxGeometry x="300" y="713" width="110" height="40" as="geometry" />
        </mxCell>
        <mxCell id="H7PLNRZKteVmDdgZQ0TA-53" value="Budgets" style="text;html=1;align=center;verticalAlign=middle;resizable=0;points=[];autosize=1;strokeColor=none;fillColor=none;" vertex="1" parent="1">
          <mxGeometry x="305" y="768" width="70" height="30" as="geometry" />
        </mxCell>
        <mxCell id="H7PLNRZKteVmDdgZQ0TA-54" value="Project resources" style="text;html=1;align=center;verticalAlign=middle;resizable=0;points=[];autosize=1;strokeColor=none;fillColor=none;" vertex="1" parent="1">
          <mxGeometry x="300" y="820" width="120" height="30" as="geometry" />
        </mxCell>
        <mxCell id="H7PLNRZKteVmDdgZQ0TA-55" value="&lt;div&gt;Work break-&lt;/div&gt;&lt;div&gt;down structure &lt;br&gt;&lt;/div&gt;" style="text;html=1;align=center;verticalAlign=middle;resizable=0;points=[];autosize=1;strokeColor=none;fillColor=none;" vertex="1" parent="1">
          <mxGeometry x="300" y="850" width="100" height="40" as="geometry" />
        </mxCell>
        <mxCell id="H7PLNRZKteVmDdgZQ0TA-56" value="&lt;div&gt;Project dependencies &lt;br&gt;&lt;/div&gt;&lt;div&gt;and milestones &lt;br&gt;&lt;/div&gt;" style="text;html=1;align=center;verticalAlign=middle;resizable=0;points=[];autosize=1;strokeColor=none;fillColor=none;" vertex="1" parent="1">
          <mxGeometry x="295" y="903" width="140" height="40" as="geometry" />
        </mxCell>
        <mxCell id="H7PLNRZKteVmDdgZQ0TA-57" value="Success matrix " style="text;html=1;align=center;verticalAlign=middle;resizable=0;points=[];autosize=1;strokeColor=none;fillColor=none;" vertex="1" parent="1">
          <mxGeometry x="295" y="943" width="110" height="30" as="geometry" />
        </mxCell>
        <mxCell id="H7PLNRZKteVmDdgZQ0TA-58" value="" style="endArrow=none;html=1;rounded=0;" edge="1" parent="1">
          <mxGeometry width="50" height="50" relative="1" as="geometry">
            <mxPoint x="300" y="1000" as="sourcePoint" />
            <mxPoint x="350" y="1000" as="targetPoint" />
          </mxGeometry>
        </mxCell>
        <mxCell id="H7PLNRZKteVmDdgZQ0TA-59" value="Risk Log " style="rounded=0;whiteSpace=wrap;html=1;" vertex="1" parent="1">
          <mxGeometry x="350" y="980" width="80" height="40" as="geometry" />
        </mxCell>
        <mxCell id="H7PLNRZKteVmDdgZQ0TA-61" value="Obtain tasks and estimates from project team and update them " style="rounded=0;whiteSpace=wrap;html=1;" vertex="1" parent="1">
          <mxGeometry x="170" y="1040" width="120" height="60" as="geometry" />
        </mxCell>
        <mxCell id="H7PLNRZKteVmDdgZQ0TA-62" value="" style="endArrow=none;html=1;rounded=0;" edge="1" parent="1">
          <mxGeometry width="50" height="50" relative="1" as="geometry">
            <mxPoint x="220" y="1160" as="sourcePoint" />
            <mxPoint x="220" y="1100" as="targetPoint" />
          </mxGeometry>
        </mxCell>
        <mxCell id="H7PLNRZKteVmDdgZQ0TA-63" value="Distribute plan to the team and get feedback " style="rounded=0;whiteSpace=wrap;html=1;" vertex="1" parent="1">
          <mxGeometry x="160" y="1160" width="120" height="60" as="geometry" />
        </mxCell>
        <mxCell id="H7PLNRZKteVmDdgZQ0TA-64" value="" style="endArrow=none;html=1;rounded=0;" edge="1" parent="1">
          <mxGeometry width="50" height="50" relative="1" as="geometry">
            <mxPoint x="220" y="1280" as="sourcePoint" />
            <mxPoint x="220" y="1220" as="targetPoint" />
          </mxGeometry>
        </mxCell>
        <mxCell id="H7PLNRZKteVmDdgZQ0TA-65" value="Conduct plan review meeting " style="rounded=0;whiteSpace=wrap;html=1;" vertex="1" parent="1">
          <mxGeometry x="160" y="1260" width="120" height="60" as="geometry" />
        </mxCell>
        <mxCell id="H7PLNRZKteVmDdgZQ0TA-66" value="" style="endArrow=none;html=1;rounded=0;" edge="1" parent="1">
          <mxGeometry width="50" height="50" relative="1" as="geometry">
            <mxPoint x="220" y="1380" as="sourcePoint" />
            <mxPoint x="220" y="1320" as="targetPoint" />
          </mxGeometry>
        </mxCell>
        <mxCell id="H7PLNRZKteVmDdgZQ0TA-67" value="Approve project plan " style="rounded=0;whiteSpace=wrap;html=1;" vertex="1" parent="1">
          <mxGeometry x="160" y="1380" width="120" height="60" as="geometry" />
        </mxCell>
        <mxCell id="H7PLNRZKteVmDdgZQ0TA-68" value="" style="endArrow=none;html=1;rounded=0;" edge="1" parent="1">
          <mxGeometry width="50" height="50" relative="1" as="geometry">
            <mxPoint x="220" y="1500" as="sourcePoint" />
            <mxPoint x="220" y="1440" as="targetPoint" />
          </mxGeometry>
        </mxCell>
        <mxCell id="H7PLNRZKteVmDdgZQ0TA-69" value="Project plan complete " style="rounded=0;whiteSpace=wrap;html=1;" vertex="1" parent="1">
          <mxGeometry x="160" y="1500" width="120" height="60" as="geometry" />
        </mxCell>
        <mxCell id="H7PLNRZKteVmDdgZQ0TA-70" value="" style="endArrow=none;html=1;rounded=0;" edge="1" parent="1">
          <mxGeometry width="50" height="50" relative="1" as="geometry">
            <mxPoint x="400" y="1120" as="sourcePoint" />
            <mxPoint x="400" y="1020" as="targetPoint" />
          </mxGeometry>
        </mxCell>
        <mxCell id="H7PLNRZKteVmDdgZQ0TA-71" value="&lt;div&gt;Determine risks &lt;br&gt;&lt;/div&gt;&lt;div&gt;and constraints &lt;br&gt;&lt;/div&gt;" style="text;html=1;align=center;verticalAlign=middle;resizable=0;points=[];autosize=1;strokeColor=none;fillColor=none;" vertex="1" parent="1">
          <mxGeometry x="390" y="1030" width="110" height="40" as="geometry" />
        </mxCell>
        <mxCell id="H7PLNRZKteVmDdgZQ0TA-72" value="&lt;div&gt;Collect&amp;nbsp;&lt;/div&gt;&lt;div&gt;risks that&amp;nbsp;&lt;/div&gt;&lt;div&gt;might&lt;/div&gt;&lt;div&gt;&amp;nbsp;show up in the project &lt;/div&gt;" style="text;html=1;align=center;verticalAlign=middle;resizable=0;points=[];autosize=1;strokeColor=none;fillColor=none;" vertex="1" parent="1">
          <mxGeometry x="360" y="1090" width="150" height="70" as="geometry" />
        </mxCell>
        <mxCell id="H7PLNRZKteVmDdgZQ0TA-73" value="" style="endArrow=none;html=1;rounded=0;" edge="1" parent="1">
          <mxGeometry width="50" height="50" relative="1" as="geometry">
            <mxPoint x="520" y="200" as="sourcePoint" />
            <mxPoint x="520" y="140" as="targetPoint" />
          </mxGeometry>
        </mxCell>
        <mxCell id="H7PLNRZKteVmDdgZQ0TA-74" value="Execution " style="rounded=0;whiteSpace=wrap;html=1;" vertex="1" parent="1">
          <mxGeometry x="460" y="190" width="120" height="40" as="geometry" />
        </mxCell>
        <mxCell id="H7PLNRZKteVmDdgZQ0TA-75" value="" style="endArrow=none;html=1;rounded=0;" edge="1" parent="1">
          <mxGeometry width="50" height="50" relative="1" as="geometry">
            <mxPoint x="520" y="520" as="sourcePoint" />
            <mxPoint x="520" y="230" as="targetPoint" />
          </mxGeometry>
        </mxCell>
        <mxCell id="H7PLNRZKteVmDdgZQ0TA-77" value="Wireframe and prototype of frontend " style="rounded=0;whiteSpace=wrap;html=1;" vertex="1" parent="1">
          <mxGeometry x="450" y="280" width="120" height="60" as="geometry" />
        </mxCell>
        <mxCell id="H7PLNRZKteVmDdgZQ0TA-79" value="&lt;div&gt;Design pages&amp;nbsp;&lt;/div&gt;&lt;div&gt;using figma&lt;/div&gt;" style="text;html=1;align=center;verticalAlign=middle;resizable=0;points=[];autosize=1;strokeColor=none;fillColor=none;" vertex="1" parent="1">
          <mxGeometry x="520" y="350" width="100" height="40" as="geometry" />
        </mxCell>
        <mxCell id="H7PLNRZKteVmDdgZQ0TA-80" value="&lt;div&gt;Use of color pallet&amp;nbsp;&lt;/div&gt;&lt;div&gt;(green and blue)&lt;/div&gt;" style="text;html=1;align=center;verticalAlign=middle;resizable=0;points=[];autosize=1;strokeColor=none;fillColor=none;" vertex="1" parent="1">
          <mxGeometry x="515" y="400" width="130" height="40" as="geometry" />
        </mxCell>
        <mxCell id="H7PLNRZKteVmDdgZQ0TA-81" value="&lt;div&gt;Routing Pages using &lt;br&gt;&lt;/div&gt;&lt;div&gt;prototype&lt;br&gt;&lt;/div&gt;" style="text;html=1;align=center;verticalAlign=middle;resizable=0;points=[];autosize=1;strokeColor=none;fillColor=none;" vertex="1" parent="1">
          <mxGeometry x="515" y="448" width="140" height="40" as="geometry" />
        </mxCell>
        <mxCell id="H7PLNRZKteVmDdgZQ0TA-83" value="Infrastructure" style="rounded=0;whiteSpace=wrap;html=1;" vertex="1" parent="1">
          <mxGeometry x="470" y="520" width="120" height="60" as="geometry" />
        </mxCell>
        <mxCell id="H7PLNRZKteVmDdgZQ0TA-84" value="" style="endArrow=none;html=1;rounded=0;" edge="1" parent="1">
          <mxGeometry width="50" height="50" relative="1" as="geometry">
            <mxPoint x="519" y="738" as="sourcePoint" />
            <mxPoint x="519" y="488" as="targetPoint" />
          </mxGeometry>
        </mxCell>
        <mxCell id="H7PLNRZKteVmDdgZQ0TA-86" value="Front-End building " style="rounded=0;whiteSpace=wrap;html=1;" vertex="1" parent="1">
          <mxGeometry x="460" y="738" width="120" height="60" as="geometry" />
        </mxCell>
        <mxCell id="H7PLNRZKteVmDdgZQ0TA-87" value="" style="endArrow=none;html=1;rounded=0;" edge="1" parent="1">
          <mxGeometry width="50" height="50" relative="1" as="geometry">
            <mxPoint x="519" y="908" as="sourcePoint" />
            <mxPoint x="519" y="798" as="targetPoint" />
          </mxGeometry>
        </mxCell>
        <mxCell id="H7PLNRZKteVmDdgZQ0TA-88" value="Backend " style="rounded=0;whiteSpace=wrap;html=1;" vertex="1" parent="1">
          <mxGeometry x="470" y="910" width="120" height="60" as="geometry" />
        </mxCell>
        <mxCell id="H7PLNRZKteVmDdgZQ0TA-89" value="" style="endArrow=none;html=1;rounded=0;" edge="1" parent="1">
          <mxGeometry width="50" height="50" relative="1" as="geometry">
            <mxPoint x="520" y="1190" as="sourcePoint" />
            <mxPoint x="520" y="970" as="targetPoint" />
          </mxGeometry>
        </mxCell>
        <mxCell id="H7PLNRZKteVmDdgZQ0TA-90" value="&lt;div&gt;Front-End: Js, React&amp;nbsp;&lt;/div&gt;&lt;div&gt;and MUI tools &lt;/div&gt;" style="text;html=1;align=center;verticalAlign=middle;resizable=0;points=[];autosize=1;strokeColor=none;fillColor=none;" vertex="1" parent="1">
          <mxGeometry x="510" y="605" width="140" height="40" as="geometry" />
        </mxCell>
        <mxCell id="H7PLNRZKteVmDdgZQ0TA-91" value="&lt;div&gt;Backend: Cyclic and&lt;/div&gt;&lt;div&gt;&amp;nbsp;Dynamo &lt;br&gt;&lt;/div&gt;&lt;div&gt;db of AWS storage &lt;br&gt;&lt;/div&gt;" style="text;html=1;align=center;verticalAlign=middle;resizable=0;points=[];autosize=1;strokeColor=none;fillColor=none;" vertex="1" parent="1">
          <mxGeometry x="515" y="663" width="130" height="60" as="geometry" />
        </mxCell>
        <mxCell id="H7PLNRZKteVmDdgZQ0TA-92" value="Pages and routing " style="text;html=1;align=center;verticalAlign=middle;resizable=0;points=[];autosize=1;strokeColor=none;fillColor=none;" vertex="1" parent="1">
          <mxGeometry x="525" y="820" width="120" height="30" as="geometry" />
        </mxCell>
        <mxCell id="H7PLNRZKteVmDdgZQ0TA-93" value="&lt;div&gt;Store user login &lt;br&gt;&lt;/div&gt;&lt;div&gt;Credentials &lt;br&gt;&lt;/div&gt;" style="text;html=1;align=center;verticalAlign=middle;resizable=0;points=[];autosize=1;strokeColor=none;fillColor=none;" vertex="1" parent="1">
          <mxGeometry x="515" y="990" width="110" height="40" as="geometry" />
        </mxCell>
        <mxCell id="H7PLNRZKteVmDdgZQ0TA-94" value="Reset password" style="text;html=1;align=center;verticalAlign=middle;resizable=0;points=[];autosize=1;strokeColor=none;fillColor=none;" vertex="1" parent="1">
          <mxGeometry x="520" y="1040" width="110" height="30" as="geometry" />
        </mxCell>
        <mxCell id="H7PLNRZKteVmDdgZQ0TA-96" value="Maps " style="rounded=0;whiteSpace=wrap;html=1;" vertex="1" parent="1">
          <mxGeometry x="470" y="1190" width="120" height="40" as="geometry" />
        </mxCell>
        <mxCell id="H7PLNRZKteVmDdgZQ0TA-97" value="" style="endArrow=none;html=1;rounded=0;" edge="1" parent="1">
          <mxGeometry width="50" height="50" relative="1" as="geometry">
            <mxPoint x="520" y="1290" as="sourcePoint" />
            <mxPoint x="520" y="1230" as="targetPoint" />
          </mxGeometry>
        </mxCell>
        <mxCell id="H7PLNRZKteVmDdgZQ0TA-98" value="Security Implementation " style="rounded=0;whiteSpace=wrap;html=1;" vertex="1" parent="1">
          <mxGeometry x="460" y="1290" width="120" height="60" as="geometry" />
        </mxCell>
        <mxCell id="H7PLNRZKteVmDdgZQ0TA-99" style="edgeStyle=orthogonalEdgeStyle;rounded=0;orthogonalLoop=1;jettySize=auto;html=1;exitX=0.5;exitY=1;exitDx=0;exitDy=0;" edge="1" parent="1" source="H7PLNRZKteVmDdgZQ0TA-98" target="H7PLNRZKteVmDdgZQ0TA-98">
          <mxGeometry relative="1" as="geometry" />
        </mxCell>
        <mxCell id="H7PLNRZKteVmDdgZQ0TA-100" value="" style="endArrow=none;html=1;rounded=0;" edge="1" parent="1">
          <mxGeometry width="50" height="50" relative="1" as="geometry">
            <mxPoint x="520" y="1500" as="sourcePoint" />
            <mxPoint x="520" y="1350" as="targetPoint" />
          </mxGeometry>
        </mxCell>
        <mxCell id="H7PLNRZKteVmDdgZQ0TA-102" value="User testing " style="rounded=0;whiteSpace=wrap;html=1;" vertex="1" parent="1">
          <mxGeometry x="460" y="1500" width="120" height="60" as="geometry" />
        </mxCell>
        <mxCell id="H7PLNRZKteVmDdgZQ0TA-103" value="" style="endArrow=none;html=1;rounded=0;" edge="1" parent="1">
          <mxGeometry width="50" height="50" relative="1" as="geometry">
            <mxPoint x="520" y="1670" as="sourcePoint" />
            <mxPoint x="520" y="1560" as="targetPoint" />
          </mxGeometry>
        </mxCell>
        <mxCell id="H7PLNRZKteVmDdgZQ0TA-105" value="User feedback integration " style="rounded=0;whiteSpace=wrap;html=1;" vertex="1" parent="1">
          <mxGeometry x="460" y="1670" width="120" height="60" as="geometry" />
        </mxCell>
        <mxCell id="H7PLNRZKteVmDdgZQ0TA-106" value="" style="endArrow=none;html=1;rounded=0;" edge="1" parent="1">
          <mxGeometry width="50" height="50" relative="1" as="geometry">
            <mxPoint x="520" y="1840" as="sourcePoint" />
            <mxPoint x="520" y="1730" as="targetPoint" />
          </mxGeometry>
        </mxCell>
        <mxCell id="H7PLNRZKteVmDdgZQ0TA-107" value="Pilot testing " style="rounded=0;whiteSpace=wrap;html=1;" vertex="1" parent="1">
          <mxGeometry x="460" y="1840" width="120" height="60" as="geometry" />
        </mxCell>
        <mxCell id="H7PLNRZKteVmDdgZQ0TA-108" value="" style="endArrow=none;html=1;rounded=0;" edge="1" parent="1">
          <mxGeometry width="50" height="50" relative="1" as="geometry">
            <mxPoint x="520" y="2030" as="sourcePoint" />
            <mxPoint x="520" y="1900" as="targetPoint" />
          </mxGeometry>
        </mxCell>
        <mxCell id="H7PLNRZKteVmDdgZQ0TA-110" value="Documentation" style="rounded=0;whiteSpace=wrap;html=1;" vertex="1" parent="1">
          <mxGeometry x="460" y="2030" width="120" height="60" as="geometry" />
        </mxCell>
        <mxCell id="H7PLNRZKteVmDdgZQ0TA-111" value="" style="endArrow=none;html=1;rounded=0;" edge="1" parent="1">
          <mxGeometry width="50" height="50" relative="1" as="geometry">
            <mxPoint x="520" y="2180" as="sourcePoint" />
            <mxPoint x="520" y="2090" as="targetPoint" />
          </mxGeometry>
        </mxCell>
        <mxCell id="H7PLNRZKteVmDdgZQ0TA-113" value="Deployment and Go live " style="rounded=0;whiteSpace=wrap;html=1;" vertex="1" parent="1">
          <mxGeometry x="460" y="2180" width="120" height="60" as="geometry" />
        </mxCell>
        <mxCell id="H7PLNRZKteVmDdgZQ0TA-114" value="" style="endArrow=none;html=1;rounded=0;" edge="1" parent="1">
          <mxGeometry width="50" height="50" relative="1" as="geometry">
            <mxPoint x="520" y="2320" as="sourcePoint" />
            <mxPoint x="520" y="2240" as="targetPoint" />
          </mxGeometry>
        </mxCell>
        <mxCell id="H7PLNRZKteVmDdgZQ0TA-115" value="Monitoring and support " style="rounded=0;whiteSpace=wrap;html=1;" vertex="1" parent="1">
          <mxGeometry x="460" y="2320" width="120" height="60" as="geometry" />
        </mxCell>
        <mxCell id="H7PLNRZKteVmDdgZQ0TA-116" value="" style="endArrow=none;html=1;rounded=0;" edge="1" parent="1">
          <mxGeometry width="50" height="50" relative="1" as="geometry">
            <mxPoint x="520" y="2440" as="sourcePoint" />
            <mxPoint x="520" y="2380" as="targetPoint" />
          </mxGeometry>
        </mxCell>
        <mxCell id="H7PLNRZKteVmDdgZQ0TA-117" value="Feedback iteration " style="rounded=0;whiteSpace=wrap;html=1;" vertex="1" parent="1">
          <mxGeometry x="460" y="2440" width="120" height="60" as="geometry" />
        </mxCell>
        <mxCell id="H7PLNRZKteVmDdgZQ0TA-118" value="&lt;div&gt;Security measures:&amp;nbsp;&lt;/div&gt;&lt;div&gt;encryption, authentication&amp;nbsp;&lt;/div&gt;&lt;div&gt;and access control&lt;/div&gt;" style="text;html=1;align=center;verticalAlign=middle;resizable=0;points=[];autosize=1;strokeColor=none;fillColor=none;" vertex="1" parent="1">
          <mxGeometry x="510" y="1380" width="170" height="60" as="geometry" />
        </mxCell>
        <mxCell id="H7PLNRZKteVmDdgZQ0TA-119" value="Conduct user testing " style="text;html=1;align=center;verticalAlign=middle;resizable=0;points=[];autosize=1;strokeColor=none;fillColor=none;" vertex="1" parent="1">
          <mxGeometry x="515" y="1568" width="140" height="30" as="geometry" />
        </mxCell>
        <mxCell id="H7PLNRZKteVmDdgZQ0TA-120" value="&lt;div&gt;Address usability&lt;/div&gt;&lt;div&gt;or functionality issues before&amp;nbsp;&lt;/div&gt;&lt;div&gt;release&lt;br&gt;&lt;/div&gt;" style="text;html=1;align=center;verticalAlign=middle;resizable=0;points=[];autosize=1;strokeColor=none;fillColor=none;" vertex="1" parent="1">
          <mxGeometry x="510" y="1610" width="180" height="60" as="geometry" />
        </mxCell>
        <mxCell id="H7PLNRZKteVmDdgZQ0TA-121" value="Collect user feedback " style="text;html=1;align=center;verticalAlign=middle;resizable=0;points=[];autosize=1;strokeColor=none;fillColor=none;" vertex="1" parent="1">
          <mxGeometry x="515" y="1738" width="140" height="30" as="geometry" />
        </mxCell>
        <mxCell id="H7PLNRZKteVmDdgZQ0TA-122" value="make improvements " style="text;html=1;align=center;verticalAlign=middle;resizable=0;points=[];autosize=1;strokeColor=none;fillColor=none;" vertex="1" parent="1">
          <mxGeometry x="510" y="1778" width="140" height="30" as="geometry" />
        </mxCell>
        <mxCell id="H7PLNRZKteVmDdgZQ0TA-123" value="&lt;div&gt;Validate application &lt;br&gt;&lt;/div&gt;&lt;div&gt;functionality and gather&amp;nbsp;&lt;/div&gt;&lt;div&gt;feedback &lt;br&gt;&lt;/div&gt;" style="text;html=1;align=center;verticalAlign=middle;resizable=0;points=[];autosize=1;strokeColor=none;fillColor=none;" vertex="1" parent="1">
          <mxGeometry x="510" y="1920" width="150" height="60" as="geometry" />
        </mxCell>
        <mxCell id="H7PLNRZKteVmDdgZQ0TA-124" value="&lt;div&gt;Create user manuals&lt;/div&gt;&lt;div&gt;technical documentation &lt;br&gt;&lt;/div&gt;" style="text;html=1;align=center;verticalAlign=middle;resizable=0;points=[];autosize=1;strokeColor=none;fillColor=none;" vertex="1" parent="1">
          <mxGeometry x="515" y="2110" width="160" height="40" as="geometry" />
        </mxCell>
        <mxCell id="H7PLNRZKteVmDdgZQ0TA-125" value="" style="endArrow=none;html=1;rounded=0;" edge="1" parent="1">
          <mxGeometry width="50" height="50" relative="1" as="geometry">
            <mxPoint x="740" y="200" as="sourcePoint" />
            <mxPoint x="740" y="140" as="targetPoint" />
          </mxGeometry>
        </mxCell>
        <mxCell id="H7PLNRZKteVmDdgZQ0TA-126" value="Control and managing " style="rounded=0;whiteSpace=wrap;html=1;" vertex="1" parent="1">
          <mxGeometry x="680" y="200" width="120" height="40" as="geometry" />
        </mxCell>
        <mxCell id="H7PLNRZKteVmDdgZQ0TA-127" value="" style="endArrow=none;html=1;rounded=0;" edge="1" parent="1">
          <mxGeometry width="50" height="50" relative="1" as="geometry">
            <mxPoint x="740" y="340" as="sourcePoint" />
            <mxPoint x="740" y="240" as="targetPoint" />
          </mxGeometry>
        </mxCell>
        <mxCell id="H7PLNRZKteVmDdgZQ0TA-128" value="Create a project scope baseline " style="rounded=0;whiteSpace=wrap;html=1;" vertex="1" parent="1">
          <mxGeometry x="680" y="340" width="120" height="60" as="geometry" />
        </mxCell>
        <mxCell id="H7PLNRZKteVmDdgZQ0TA-129" value="" style="endArrow=none;html=1;rounded=0;" edge="1" parent="1">
          <mxGeometry width="50" height="50" relative="1" as="geometry">
            <mxPoint x="740" y="500" as="sourcePoint" />
            <mxPoint x="740" y="400" as="targetPoint" />
          </mxGeometry>
        </mxCell>
        <mxCell id="H7PLNRZKteVmDdgZQ0TA-130" value="Make a project schedule Baseline " style="rounded=0;whiteSpace=wrap;html=1;" vertex="1" parent="1">
          <mxGeometry x="680" y="500" width="120" height="60" as="geometry" />
        </mxCell>
        <mxCell id="H7PLNRZKteVmDdgZQ0TA-131" value="&lt;div&gt;Define expectation &lt;br&gt;&lt;/div&gt;&lt;div&gt;and requirements of &lt;br&gt;&lt;/div&gt;&lt;div&gt;project stakeholders&lt;br&gt;&lt;/div&gt;" style="text;html=1;align=center;verticalAlign=middle;resizable=0;points=[];autosize=1;strokeColor=none;fillColor=none;" vertex="1" parent="1">
          <mxGeometry x="730" y="410" width="140" height="60" as="geometry" />
        </mxCell>
        <mxCell id="H7PLNRZKteVmDdgZQ0TA-132" value="" style="endArrow=none;html=1;rounded=0;" edge="1" parent="1">
          <mxGeometry width="50" height="50" relative="1" as="geometry">
            <mxPoint x="740" y="630" as="sourcePoint" />
            <mxPoint x="740" y="560" as="targetPoint" />
          </mxGeometry>
        </mxCell>
        <mxCell id="H7PLNRZKteVmDdgZQ0TA-133" value="Estimate project costs and define project budget" style="rounded=0;whiteSpace=wrap;html=1;" vertex="1" parent="1">
          <mxGeometry x="690" y="625" width="120" height="60" as="geometry" />
        </mxCell>
        <mxCell id="H7PLNRZKteVmDdgZQ0TA-134" value="" style="endArrow=none;html=1;rounded=0;" edge="1" parent="1">
          <mxGeometry width="50" height="50" relative="1" as="geometry">
            <mxPoint x="740" y="740" as="sourcePoint" />
            <mxPoint x="740" y="685" as="targetPoint" />
          </mxGeometry>
        </mxCell>
        <mxCell id="H7PLNRZKteVmDdgZQ0TA-135" value="Use a Risk Log " style="rounded=0;whiteSpace=wrap;html=1;" vertex="1" parent="1">
          <mxGeometry x="680" y="740" width="120" height="60" as="geometry" />
        </mxCell>
        <mxCell id="H7PLNRZKteVmDdgZQ0TA-136" value="" style="endArrow=none;html=1;rounded=0;" edge="1" parent="1">
          <mxGeometry width="50" height="50" relative="1" as="geometry">
            <mxPoint x="740" y="860" as="sourcePoint" />
            <mxPoint x="740" y="800" as="targetPoint" />
          </mxGeometry>
        </mxCell>
        <mxCell id="H7PLNRZKteVmDdgZQ0TA-137" value="Use a change log" style="rounded=0;whiteSpace=wrap;html=1;" vertex="1" parent="1">
          <mxGeometry x="680" y="860" width="120" height="60" as="geometry" />
        </mxCell>
        <mxCell id="H7PLNRZKteVmDdgZQ0TA-138" value="" style="endArrow=none;html=1;rounded=0;" edge="1" parent="1">
          <mxGeometry width="50" height="50" relative="1" as="geometry">
            <mxPoint x="740" y="980" as="sourcePoint" />
            <mxPoint x="740" y="923" as="targetPoint" />
          </mxGeometry>
        </mxCell>
        <mxCell id="H7PLNRZKteVmDdgZQ0TA-139" value="Establish quality " style="rounded=0;whiteSpace=wrap;html=1;" vertex="1" parent="1">
          <mxGeometry x="680" y="980" width="120" height="60" as="geometry" />
        </mxCell>
        <mxCell id="H7PLNRZKteVmDdgZQ0TA-140" value="" style="endArrow=none;html=1;rounded=0;" edge="1" parent="1">
          <mxGeometry width="50" height="50" relative="1" as="geometry">
            <mxPoint x="740" y="1100" as="sourcePoint" />
            <mxPoint x="740" y="1040" as="targetPoint" />
          </mxGeometry>
        </mxCell>
        <mxCell id="H7PLNRZKteVmDdgZQ0TA-141" value="Use project monitoring tools" style="rounded=0;whiteSpace=wrap;html=1;" vertex="1" parent="1">
          <mxGeometry x="680" y="1100" width="120" height="60" as="geometry" />
        </mxCell>
        <mxCell id="H7PLNRZKteVmDdgZQ0TA-142" value="" style="endArrow=none;html=1;rounded=0;" edge="1" parent="1">
          <mxGeometry width="50" height="50" relative="1" as="geometry">
            <mxPoint x="739.5" y="1215" as="sourcePoint" />
            <mxPoint x="739.5" y="1160" as="targetPoint" />
          </mxGeometry>
        </mxCell>
        <mxCell id="H7PLNRZKteVmDdgZQ0TA-144" value="Create project reports " style="rounded=0;whiteSpace=wrap;html=1;" vertex="1" parent="1">
          <mxGeometry x="680" y="1210" width="120" height="60" as="geometry" />
        </mxCell>
        <mxCell id="H7PLNRZKteVmDdgZQ0TA-145" value="" style="endArrow=none;html=1;rounded=0;" edge="1" parent="1">
          <mxGeometry width="50" height="50" relative="1" as="geometry">
            <mxPoint x="740" y="1330" as="sourcePoint" />
            <mxPoint x="740" y="1270" as="targetPoint" />
          </mxGeometry>
        </mxCell>
        <mxCell id="H7PLNRZKteVmDdgZQ0TA-146" value="End control phase" style="rounded=0;whiteSpace=wrap;html=1;" vertex="1" parent="1">
          <mxGeometry x="680" y="1330" width="120" height="60" as="geometry" />
        </mxCell>
        <mxCell id="H7PLNRZKteVmDdgZQ0TA-147" value="" style="endArrow=none;html=1;rounded=0;" edge="1" parent="1">
          <mxGeometry width="50" height="50" relative="1" as="geometry">
            <mxPoint x="1040" y="200" as="sourcePoint" />
            <mxPoint x="1040" y="140" as="targetPoint" />
          </mxGeometry>
        </mxCell>
        <mxCell id="H7PLNRZKteVmDdgZQ0TA-148" value="Close out " style="rounded=0;whiteSpace=wrap;html=1;" vertex="1" parent="1">
          <mxGeometry x="990" y="200" width="120" height="60" as="geometry" />
        </mxCell>
        <mxCell id="H7PLNRZKteVmDdgZQ0TA-150" value="Arrange a post Mortem " style="rounded=0;whiteSpace=wrap;html=1;" vertex="1" parent="1">
          <mxGeometry x="1000" y="350" width="120" height="60" as="geometry" />
        </mxCell>
        <mxCell id="H7PLNRZKteVmDdgZQ0TA-151" value="" style="endArrow=none;html=1;rounded=0;exitX=0.425;exitY=-0.05;exitDx=0;exitDy=0;exitPerimeter=0;" edge="1" parent="1" source="H7PLNRZKteVmDdgZQ0TA-150">
          <mxGeometry width="50" height="50" relative="1" as="geometry">
            <mxPoint x="1000" y="310" as="sourcePoint" />
            <mxPoint x="1050" y="260" as="targetPoint" />
          </mxGeometry>
        </mxCell>
        <mxCell id="H7PLNRZKteVmDdgZQ0TA-152" value="" style="endArrow=none;html=1;rounded=0;" edge="1" parent="1">
          <mxGeometry width="50" height="50" relative="1" as="geometry">
            <mxPoint x="1050" y="520" as="sourcePoint" />
            <mxPoint x="1050" y="410" as="targetPoint" />
          </mxGeometry>
        </mxCell>
        <mxCell id="H7PLNRZKteVmDdgZQ0TA-153" value="&lt;div&gt;Document the mistakes &lt;br&gt;&lt;/div&gt;&lt;div&gt;and success of the project &lt;br&gt;&lt;/div&gt;" style="text;html=1;align=center;verticalAlign=middle;resizable=0;points=[];autosize=1;strokeColor=none;fillColor=none;" vertex="1" parent="1">
          <mxGeometry x="1040" y="440" width="170" height="40" as="geometry" />
        </mxCell>
        <mxCell id="H7PLNRZKteVmDdgZQ0TA-154" value="Complete paperwork" style="rounded=0;whiteSpace=wrap;html=1;" vertex="1" parent="1">
          <mxGeometry x="1000" y="518" width="120" height="60" as="geometry" />
        </mxCell>
        <mxCell id="H7PLNRZKteVmDdgZQ0TA-155" value="" style="endArrow=none;html=1;rounded=0;" edge="1" parent="1">
          <mxGeometry width="50" height="50" relative="1" as="geometry">
            <mxPoint x="1050" y="720" as="sourcePoint" />
            <mxPoint x="1050" y="578" as="targetPoint" />
          </mxGeometry>
        </mxCell>
        <mxCell id="H7PLNRZKteVmDdgZQ0TA-156" value="Release paperwork" style="rounded=0;whiteSpace=wrap;html=1;" vertex="1" parent="1">
          <mxGeometry x="990" y="720" width="120" height="60" as="geometry" />
        </mxCell>
        <mxCell id="H7PLNRZKteVmDdgZQ0TA-157" value="Closing all contracts" style="text;html=1;align=center;verticalAlign=middle;resizable=0;points=[];autosize=1;strokeColor=none;fillColor=none;" vertex="1" parent="1">
          <mxGeometry x="1040" y="590" width="140" height="30" as="geometry" />
        </mxCell>
        <mxCell id="H7PLNRZKteVmDdgZQ0TA-158" value="&lt;div&gt;Addressing &lt;br&gt;&lt;/div&gt;&lt;div&gt;Understanding &lt;br&gt;&lt;/div&gt;&lt;div&gt;Payment&lt;br&gt;&lt;/div&gt;" style="text;html=1;align=center;verticalAlign=middle;resizable=0;points=[];autosize=1;strokeColor=none;fillColor=none;" vertex="1" parent="1">
          <mxGeometry x="1040" y="625" width="110" height="60" as="geometry" />
        </mxCell>
        <mxCell id="H7PLNRZKteVmDdgZQ0TA-159" value="" style="endArrow=none;html=1;rounded=0;" edge="1" parent="1">
          <mxGeometry width="50" height="50" relative="1" as="geometry">
            <mxPoint x="1050" y="920" as="sourcePoint" />
            <mxPoint x="1050" y="780" as="targetPoint" />
          </mxGeometry>
        </mxCell>
        <mxCell id="H7PLNRZKteVmDdgZQ0TA-160" value="Archive documentation " style="rounded=0;whiteSpace=wrap;html=1;" vertex="1" parent="1">
          <mxGeometry x="1000" y="920" width="120" height="60" as="geometry" />
        </mxCell>
        <mxCell id="H7PLNRZKteVmDdgZQ0TA-161" value="&lt;div&gt;Choose team &lt;br&gt;&lt;/div&gt;&lt;div&gt;member to sign&lt;/div&gt;&lt;div&gt;and leave those to &lt;br&gt;&lt;/div&gt;&lt;div&gt;remain &lt;br&gt;&lt;/div&gt;" style="text;html=1;align=center;verticalAlign=middle;resizable=0;points=[];autosize=1;strokeColor=none;fillColor=none;" vertex="1" parent="1">
          <mxGeometry x="1040" y="810" width="120" height="70" as="geometry" />
        </mxCell>
        <mxCell id="H7PLNRZKteVmDdgZQ0TA-162" value="" style="endArrow=none;html=1;rounded=0;" edge="1" parent="1">
          <mxGeometry width="50" height="50" relative="1" as="geometry">
            <mxPoint x="1050" y="1060" as="sourcePoint" />
            <mxPoint x="1050" y="980" as="targetPoint" />
          </mxGeometry>
        </mxCell>
        <mxCell id="H7PLNRZKteVmDdgZQ0TA-163" value="Celebrate success" style="rounded=0;whiteSpace=wrap;html=1;" vertex="1" parent="1">
          <mxGeometry x="1000" y="1060" width="120" height="60" as="geometry" />
        </mxCell>
        <mxCell id="H7PLNRZKteVmDdgZQ0TA-164" value="&lt;div&gt;Store project &lt;br&gt;&lt;/div&gt;&lt;div&gt;documentation &lt;br&gt;&lt;/div&gt;" style="text;html=1;align=center;verticalAlign=middle;resizable=0;points=[];autosize=1;strokeColor=none;fillColor=none;" vertex="1" parent="1">
          <mxGeometry x="1040" y="1000" width="110" height="40" as="geometry" />
        </mxCell>
      </root>
    </mxGraphModel>
  </diagram>
</mxfile>
